<?xml version="1.0" encoding="UTF-8" standalone="no"?>
<svg width="416px" height="563px" viewBox="0 0 416 563" version="1.1" xmlns="http://www.w3.org/2000/svg" xmlns:xlink="http://www.w3.org/1999/xlink" xmlns:sketch="http://www.bohemiancoding.com/sketch/ns">
    <!-- Generator: Sketch 3.1.1 (8761) - http://www.bohemiancoding.com/sketch -->
    <title>Artboard 11</title>
    <desc>Created with Sketch.</desc>
    <defs></defs>
    <g id="Welcome" stroke="none" stroke-width="1" fill="none" fill-rule="evenodd" sketch:type="MSPage">
        <g id="Artboard-11" sketch:type="MSArtboardGroup">
            <g id="Group-12" sketch:type="MSLayerGroup">
                <polygon id="Polygon-1" fill="#8FD02A" sketch:type="MSShapeGroup" points="209.485714 0 250.015703 70.189314 168.955725 70.189314 "></polygon>
                <polygon id="Polygon-2" fill="#C3E489" sketch:type="MSShapeGroup" points="169.371429 69.817942 209.901417 140.007256 128.84144 140.007256 "></polygon>
                <polygon id="Polygon-4" fill="#91B949" sketch:type="MSShapeGroup" points="129.257143 139.635884 169.787132 209.825198 88.727154 209.825198 "></polygon>
                <polygon id="Polygon-5" fill="#9BD17D" sketch:type="MSShapeGroup" points="209.485714 139.635884 250.015703 209.825198 168.955725 209.825198 "></polygon>
                <polygon id="Polygon-6" fill="#8FBA46" sketch:type="MSShapeGroup" points="289.714286 139.635884 330.244275 209.825198 249.184297 209.825198 "></polygon>
                <polygon id="Polygon-3" fill="#61A92C" sketch:type="MSShapeGroup" points="249.6 69.817942 290.129989 140.007256 209.070011 140.007256 "></polygon>
                <polygon id="Polygon-23" fill="#8FBA46" sketch:type="MSShapeGroup" transform="translate(169.371429, 163.032322) scale(1, -1) translate(-169.371429, -163.032322) " points="169.371429 116.239446 209.901417 186.42876 128.84144 186.42876 "></polygon>
                <polygon id="Polygon-27" fill="#8FBA46" sketch:type="MSShapeGroup" transform="translate(168.628571, 232.850264) scale(1, -1) translate(-168.628571, -232.850264) " points="168.628571 186.057388 209.15856 256.246702 128.098583 256.246702 "></polygon>
                <polygon id="Polygon-29" fill="#8FBA46" sketch:type="MSShapeGroup" transform="translate(208.742857, 302.668206) scale(1, -1) translate(-208.742857, -302.668206) " points="208.742857 255.87533 249.272846 326.064644 168.212868 326.064644 "></polygon>
                <polygon id="Polygon-30" fill="#8FBA46" sketch:type="MSShapeGroup" transform="translate(288.971429, 302.668206) scale(1, -1) translate(-288.971429, -302.668206) " points="288.971429 255.87533 329.501417 326.064644 248.44144 326.064644 "></polygon>
                <polygon id="Polygon-25" fill="#8FD02A" sketch:type="MSShapeGroup" transform="translate(249.600000, 163.032322) scale(1, -1) translate(-249.600000, -163.032322) " points="249.6 116.239446 290.129989 186.42876 209.070011 186.42876 "></polygon>
                <polygon id="Polygon-28" fill="#C3E489" sketch:type="MSShapeGroup" transform="translate(248.857143, 232.850264) scale(1, -1) translate(-248.857143, -232.850264) " points="248.857143 186.057388 289.387132 256.246702 208.327154 256.246702 "></polygon>
                <polygon id="Polygon-26" fill="#8FBA46" sketch:type="MSShapeGroup" transform="translate(209.485714, 92.843008) scale(1, -1) translate(-209.485714, -92.843008) " points="209.485714 46.0501319 250.015703 116.239446 168.955725 116.239446 "></polygon>
                <polygon id="Polygon-24" fill="#8FBA46" sketch:type="MSShapeGroup" transform="translate(288.971429, 371.372032) scale(1, -1) translate(-288.971429, -371.372032) " points="288.971429 324.579156 329.501417 394.76847 248.44144 394.76847 "></polygon>
                <polygon id="Polygon-31" fill="#8FBA46" sketch:type="MSShapeGroup" transform="translate(86.914286, 442.304090) scale(1, -1) translate(-86.914286, -442.304090) " points="86.9142857 395.511214 127.444275 465.700528 46.3842968 465.700528 "></polygon>
                <polygon id="Polygon-32" fill="#4A8A00" sketch:type="MSShapeGroup" transform="translate(329.085714, 441.561346) scale(1, -1) translate(-329.085714, -441.561346) " points="329.085714 394.76847 369.615703 464.957784 288.555725 464.957784 "></polygon>
                <polygon id="Polygon-11" fill="#90D12F" sketch:type="MSShapeGroup" points="128.514286 209.453826 169.044275 279.64314 87.9842968 279.64314 "></polygon>
                <polygon id="Polygon-7" fill="#C1E58B" sketch:type="MSShapeGroup" points="88.4 279.271768 128.929989 349.461082 47.8700111 349.461082 "></polygon>
                <polygon id="Polygon-8" fill="#C3E489" sketch:type="MSShapeGroup" points="168.628571 279.271768 209.15856 349.461082 128.098583 349.461082 "></polygon>
                <polygon id="Polygon-9" fill="#8FBA47" sketch:type="MSShapeGroup" points="248.857143 278.529024 289.387132 348.718338 208.327154 348.718338 "></polygon>
                <polygon id="Polygon-13" fill="#4A8A00" sketch:type="MSShapeGroup" points="329.085714 278.529024 369.615703 348.718338 288.555725 348.718338 "></polygon>
                <polygon id="Polygon-10" fill="#4A8A00" sketch:type="MSShapeGroup" points="208.742857 209.453826 249.272846 279.64314 168.212868 279.64314 "></polygon>
                <polygon id="Polygon-12" fill="#8ED12C" sketch:type="MSShapeGroup" points="289.387132 209.082454 329.917121 279.271768 248.857143 279.271768 "></polygon>
                <polygon id="Polygon-20" fill="#8ED12C" sketch:type="MSShapeGroup" points="86.9142857 349.08971 127.444275 419.279024 46.3842968 419.279024 "></polygon>
                <polygon id="Polygon-14" fill="#4A8A00" sketch:type="MSShapeGroup" points="46.8 418.907652 87.3299889 489.096966 6.2700111 489.096966 "></polygon>
                <polygon id="Polygon-15" fill="#6AA031" sketch:type="MSShapeGroup" points="127.028571 418.907652 167.55856 489.096966 86.4985825 489.096966 "></polygon>
                <polygon id="Polygon-16" fill="#C3E489" sketch:type="MSShapeGroup" points="208 418.907652 248.529989 489.096966 167.470011 489.096966 "></polygon>
                <polygon id="Polygon-17" fill="#8FBA47" sketch:type="MSShapeGroup" points="288.971429 418.164908 329.501417 488.354222 248.44144 488.354222 "></polygon>
                <polygon id="Polygon-22" fill="#C3E489" sketch:type="MSShapeGroup" points="369.2 418.907652 409.729989 489.096966 328.670011 489.096966 "></polygon>
                <polygon id="Polygon-18" fill="#61A92C" sketch:type="MSShapeGroup" points="168.628571 348.346966 209.15856 418.53628 128.098583 418.53628 "></polygon>
                <polygon id="Polygon-19" fill="#C3E489" sketch:type="MSShapeGroup" points="248.857143 348.346966 289.387132 418.53628 208.327154 418.53628 "></polygon>
                <polygon id="Polygon-21" fill="#9BD17D" sketch:type="MSShapeGroup" points="329.085714 348.346966 369.615703 418.53628 288.555725 418.53628 "></polygon>
                <rect id="Rectangle-1" fill="#C66842" sketch:type="MSShapeGroup" x="168.628571" y="488.725594" width="40.1142857" height="74.2744063"></rect>
                <rect id="Rectangle-2" fill="#734C2F" sketch:type="MSShapeGroup" x="208" y="488.725594" width="40.1142857" height="74.2744063"></rect>
            </g>
        </g>
    </g>
</svg>