<?xml version="1.0" encoding="UTF-8" standalone="no"?>
<svg width="480px" height="563px" viewBox="0 0 480 563" version="1.1" xmlns="http://www.w3.org/2000/svg" xmlns:xlink="http://www.w3.org/1999/xlink" xmlns:sketch="http://www.bohemiancoding.com/sketch/ns">
    <!-- Generator: Sketch 3.1.1 (8761) - http://www.bohemiancoding.com/sketch -->
    <title>Artboard 8</title>
    <desc>Created with Sketch.</desc>
    <defs></defs>
    <g id="Welcome" stroke="none" stroke-width="1" fill="none" fill-rule="evenodd" sketch:type="MSPage">
        <g id="Artboard-8" sketch:type="MSArtboardGroup">
            <g id="Group-2" sketch:type="MSLayerGroup">
                <g id="Rectangle-4-+-Rectangle-4" transform="translate(181.000000, 240.000000)" sketch:type="MSShapeGroup">
                    <rect id="Rectangle-4" fill="#C66842" x="0" y="0" width="60.5607477" height="323"></rect>
                    <rect id="Rectangle-3" fill="#734C2F" x="59.4392523" y="0" width="60.5607477" height="323"></rect>
                </g>
                <g id="Group-11" transform="translate(179.000000, 0.000000)" sketch:type="MSShapeGroup">
                    <path d="M60,0 C26.862915,0 0,26.862915 0,60 L90,60 L60,60 L60,-1.55431223e-15 Z" id="Oval-53" fill="#8FBA46"></path>
                    <path d="M90,0 C56.862915,0 30,26.862915 30,60 L120,60 L90,60 L90,-1.55431223e-15 Z" id="Oval-50" fill="#C3E489" transform="translate(75.000000, 30.000000) scale(-1, 1) translate(-75.000000, -30.000000) "></path>
                    <path d="M90,60 C56.862915,60 30,86.862915 30,120 L120,120 L90,120 L90,60 Z" id="Oval-51" fill="#417505" transform="translate(75.000000, 90.000000) scale(-1, -1) translate(-75.000000, -90.000000) "></path>
                    <path d="M60,60 C26.862915,60 0,86.862915 0,120 L90,120 L60,120 L60,60 Z" id="Oval-52" fill="#679619" transform="translate(45.000000, 90.000000) scale(1, -1) translate(-45.000000, -90.000000) "></path>
                </g>
                <g id="Group-21" transform="translate(119.000000, 60.000000)" sketch:type="MSShapeGroup">
                    <path d="M60,0 C26.862915,0 0,26.862915 0,60 L90,60 L60,60 L60,-1.55431223e-15 Z" id="Oval-53" fill="#8FBA46"></path>
                    <path d="M90,0 C56.862915,0 30,26.862915 30,60 L120,60 L90,60 L90,-1.55431223e-15 Z" id="Oval-50" fill="#C3E489" transform="translate(75.000000, 30.000000) scale(-1, 1) translate(-75.000000, -30.000000) "></path>
                    <path d="M90,60 C56.862915,60 30,86.862915 30,120 L120,120 L90,120 L90,60 Z" id="Oval-51" fill="#417505" transform="translate(75.000000, 90.000000) scale(-1, -1) translate(-75.000000, -90.000000) "></path>
                    <path d="M60,60 C26.862915,60 0,86.862915 0,120 L90,120 L60,120 L60,60 Z" id="Oval-52" fill="#679619" transform="translate(45.000000, 90.000000) scale(1, -1) translate(-45.000000, -90.000000) "></path>
                </g>
                <g id="Group-22" transform="translate(59.000000, 120.000000)" sketch:type="MSShapeGroup">
                    <path d="M60,0 C26.862915,0 0,26.862915 0,60 L90,60 L60,60 L60,-1.55431223e-15 Z" id="Oval-53" fill="#8FBA46"></path>
                    <path d="M90,0 C56.862915,0 30,26.862915 30,60 L120,60 L90,60 L90,-1.55431223e-15 Z" id="Oval-50" fill="#C3E489" transform="translate(75.000000, 30.000000) scale(-1, 1) translate(-75.000000, -30.000000) "></path>
                    <path d="M90,60 C56.862915,60 30,86.862915 30,120 L120,120 L90,120 L90,60 Z" id="Oval-51" fill="#417505" transform="translate(75.000000, 90.000000) scale(-1, -1) translate(-75.000000, -90.000000) "></path>
                    <path d="M60,60 C26.862915,60 0,86.862915 0,120 L90,120 L60,120 L60,60 Z" id="Oval-52" fill="#679619" transform="translate(45.000000, 90.000000) scale(1, -1) translate(-45.000000, -90.000000) "></path>
                </g>
                <g id="Group-23" transform="translate(120.000000, 182.000000)" sketch:type="MSShapeGroup">
                    <path d="M60,0 C26.862915,0 0,26.862915 0,60 L90,60 L60,60 L60,-1.55431223e-15 Z" id="Oval-53" fill="#8FBA46"></path>
                    <path d="M90,0 C56.862915,0 30,26.862915 30,60 L120,60 L90,60 L90,-1.55431223e-15 Z" id="Oval-50" fill="#C3E489" transform="translate(75.000000, 30.000000) scale(-1, 1) translate(-75.000000, -30.000000) "></path>
                    <path d="M90,60 C56.862915,60 30,86.862915 30,120 L120,120 L90,120 L90,60 Z" id="Oval-51" fill="#417505" transform="translate(75.000000, 90.000000) scale(-1, -1) translate(-75.000000, -90.000000) "></path>
                    <path d="M60,60 C26.862915,60 0,86.862915 0,120 L90,120 L60,120 L60,60 Z" id="Oval-52" fill="#679619" transform="translate(45.000000, 90.000000) scale(1, -1) translate(-45.000000, -90.000000) "></path>
                </g>
                <g id="Group-24" transform="translate(60.000000, 242.000000)" sketch:type="MSShapeGroup">
                    <path d="M60,0 C26.862915,0 0,26.862915 0,60 L90,60 L60,60 L60,-1.55431223e-15 Z" id="Oval-53" fill="#8FBA46"></path>
                    <path d="M90,0 C56.862915,0 30,26.862915 30,60 L120,60 L90,60 L90,-1.55431223e-15 Z" id="Oval-50" fill="#C3E489" transform="translate(75.000000, 30.000000) scale(-1, 1) translate(-75.000000, -30.000000) "></path>
                    <path d="M90,60 C56.862915,60 30,86.862915 30,120 L120,120 L90,120 L90,60 Z" id="Oval-51" fill="#417505" transform="translate(75.000000, 90.000000) scale(-1, -1) translate(-75.000000, -90.000000) "></path>
                    <path d="M60,60 C26.862915,60 0,86.862915 0,120 L90,120 L60,120 L60,60 Z" id="Oval-52" fill="#679619" transform="translate(45.000000, 90.000000) scale(1, -1) translate(-45.000000, -90.000000) "></path>
                </g>
                <g id="Group-25" transform="translate(120.000000, 303.000000)" sketch:type="MSShapeGroup">
                    <path d="M60,0 C26.862915,0 0,26.862915 0,60 L90,60 L60,60 L60,-1.55431223e-15 Z" id="Oval-53" fill="#8FBA46"></path>
                    <path d="M90,0 C56.862915,0 30,26.862915 30,60 L120,60 L90,60 L90,-1.55431223e-15 Z" id="Oval-50" fill="#C3E489" transform="translate(75.000000, 30.000000) scale(-1, 1) translate(-75.000000, -30.000000) "></path>
                    <path d="M90,60 C56.862915,60 30,86.862915 30,120 L120,120 L90,120 L90,60 Z" id="Oval-51" fill="#417505" transform="translate(75.000000, 90.000000) scale(-1, -1) translate(-75.000000, -90.000000) "></path>
                    <path d="M60,60 C26.862915,60 0,86.862915 0,120 L90,120 L60,120 L60,60 Z" id="Oval-52" fill="#679619" transform="translate(45.000000, 90.000000) scale(1, -1) translate(-45.000000, -90.000000) "></path>
                </g>
                <g id="Group-26" transform="translate(60.000000, 363.000000)" sketch:type="MSShapeGroup">
                    <path d="M60,0 C26.862915,0 0,26.862915 0,60 L90,60 L60,60 L60,-1.55431223e-15 Z" id="Oval-53" fill="#8FBA46"></path>
                    <path d="M90,0 C56.862915,0 30,26.862915 30,60 L120,60 L90,60 L90,-1.55431223e-15 Z" id="Oval-50" fill="#C3E489" transform="translate(75.000000, 30.000000) scale(-1, 1) translate(-75.000000, -30.000000) "></path>
                    <path d="M90,60 C56.862915,60 30,86.862915 30,120 L120,120 L90,120 L90,60 Z" id="Oval-51" fill="#417505" transform="translate(75.000000, 90.000000) scale(-1, -1) translate(-75.000000, -90.000000) "></path>
                    <path d="M60,60 C26.862915,60 0,86.862915 0,120 L90,120 L60,120 L60,60 Z" id="Oval-52" fill="#679619" transform="translate(45.000000, 90.000000) scale(1, -1) translate(-45.000000, -90.000000) "></path>
                </g>
                <g id="Group-27" transform="translate(0.000000, 304.000000)" sketch:type="MSShapeGroup">
                    <path d="M60,0 C26.862915,0 0,26.862915 0,60 L90,60 L60,60 L60,-1.55431223e-15 Z" id="Oval-53" fill="#8FBA46"></path>
                    <path d="M90,0 C56.862915,0 30,26.862915 30,60 L120,60 L90,60 L90,-1.55431223e-15 Z" id="Oval-50" fill="#C3E489" transform="translate(75.000000, 30.000000) scale(-1, 1) translate(-75.000000, -30.000000) "></path>
                    <path d="M90,60 C56.862915,60 30,86.862915 30,120 L120,120 L90,120 L90,60 Z" id="Oval-51" fill="#417505" transform="translate(75.000000, 90.000000) scale(-1, -1) translate(-75.000000, -90.000000) "></path>
                    <path d="M60,60 C26.862915,60 0,86.862915 0,120 L90,120 L60,120 L60,60 Z" id="Oval-52" fill="#679619" transform="translate(45.000000, 90.000000) scale(1, -1) translate(-45.000000, -90.000000) "></path>
                </g>
                <g id="Group-28" transform="translate(360.000000, 304.000000)" sketch:type="MSShapeGroup">
                    <path d="M60,0 C26.862915,0 0,26.862915 0,60 L90,60 L60,60 L60,-1.55431223e-15 Z" id="Oval-53" fill="#8FBA46"></path>
                    <path d="M90,0 C56.862915,0 30,26.862915 30,60 L120,60 L90,60 L90,-1.55431223e-15 Z" id="Oval-50" fill="#C3E489" transform="translate(75.000000, 30.000000) scale(-1, 1) translate(-75.000000, -30.000000) "></path>
                    <path d="M90,60 C56.862915,60 30,86.862915 30,120 L120,120 L90,120 L90,60 Z" id="Oval-51" fill="#417505" transform="translate(75.000000, 90.000000) scale(-1, -1) translate(-75.000000, -90.000000) "></path>
                    <path d="M60,60 C26.862915,60 0,86.862915 0,120 L90,120 L60,120 L60,60 Z" id="Oval-52" fill="#679619" transform="translate(45.000000, 90.000000) scale(1, -1) translate(-45.000000, -90.000000) "></path>
                </g>
                <g id="Group-29" transform="translate(300.000000, 365.000000)" sketch:type="MSShapeGroup">
                    <path d="M60,0 C26.862915,0 0,26.862915 0,60 L90,60 L60,60 L60,-1.55431223e-15 Z" id="Oval-53" fill="#8FBA46"></path>
                    <path d="M90,0 C56.862915,0 30,26.862915 30,60 L120,60 L90,60 L90,-1.55431223e-15 Z" id="Oval-50" fill="#C3E489" transform="translate(75.000000, 30.000000) scale(-1, 1) translate(-75.000000, -30.000000) "></path>
                    <path d="M90,60 C56.862915,60 30,86.862915 30,120 L120,120 L90,120 L90,60 Z" id="Oval-51" fill="#417505" transform="translate(75.000000, 90.000000) scale(-1, -1) translate(-75.000000, -90.000000) "></path>
                    <path d="M60,60 C26.862915,60 0,86.862915 0,120 L90,120 L60,120 L60,60 Z" id="Oval-52" fill="#679619" transform="translate(45.000000, 90.000000) scale(1, -1) translate(-45.000000, -90.000000) "></path>
                </g>
                <g id="Group-30" transform="translate(300.000000, 243.000000)" sketch:type="MSShapeGroup">
                    <path d="M60,0 C26.862915,0 0,26.862915 0,60 L90,60 L60,60 L60,-1.55431223e-15 Z" id="Oval-53" fill="#8FBA46"></path>
                    <path d="M90,0 C56.862915,0 30,26.862915 30,60 L120,60 L90,60 L90,-1.55431223e-15 Z" id="Oval-50" fill="#C3E489" transform="translate(75.000000, 30.000000) scale(-1, 1) translate(-75.000000, -30.000000) "></path>
                    <path d="M90,60 C56.862915,60 30,86.862915 30,120 L120,120 L90,120 L90,60 Z" id="Oval-51" fill="#417505" transform="translate(75.000000, 90.000000) scale(-1, -1) translate(-75.000000, -90.000000) "></path>
                    <path d="M60,60 C26.862915,60 0,86.862915 0,120 L90,120 L60,120 L60,60 Z" id="Oval-52" fill="#679619" transform="translate(45.000000, 90.000000) scale(1, -1) translate(-45.000000, -90.000000) "></path>
                </g>
                <g id="Group-31" transform="translate(240.000000, 305.000000)" sketch:type="MSShapeGroup">
                    <path d="M60,0 C26.862915,0 0,26.862915 0,60 L90,60 L60,60 L60,-1.55431223e-15 Z" id="Oval-53" fill="#8FBA46"></path>
                    <path d="M90,0 C56.862915,0 30,26.862915 30,60 L120,60 L90,60 L90,-1.55431223e-15 Z" id="Oval-50" fill="#C3E489" transform="translate(75.000000, 30.000000) scale(-1, 1) translate(-75.000000, -30.000000) "></path>
                    <path d="M90,60 C56.862915,60 30,86.862915 30,120 L120,120 L90,120 L90,60 Z" id="Oval-51" fill="#417505" transform="translate(75.000000, 90.000000) scale(-1, -1) translate(-75.000000, -90.000000) "></path>
                    <path d="M60,60 C26.862915,60 0,86.862915 0,120 L90,120 L60,120 L60,60 Z" id="Oval-52" fill="#679619" transform="translate(45.000000, 90.000000) scale(1, -1) translate(-45.000000, -90.000000) "></path>
                </g>
                <g id="Group-32" transform="translate(181.000000, 365.000000)" sketch:type="MSShapeGroup">
                    <path d="M60,0 C26.862915,0 0,26.862915 0,60 L90,60 L60,60 L60,-1.55431223e-15 Z" id="Oval-53" fill="#8FBA46"></path>
                    <path d="M90,0 C56.862915,0 30,26.862915 30,60 L120,60 L90,60 L90,-1.55431223e-15 Z" id="Oval-50" fill="#C3E489" transform="translate(75.000000, 30.000000) scale(-1, 1) translate(-75.000000, -30.000000) "></path>
                    <path d="M90,60 C56.862915,60 30,86.862915 30,120 L120,120 L90,120 L90,60 Z" id="Oval-51" fill="#417505" transform="translate(75.000000, 90.000000) scale(-1, -1) translate(-75.000000, -90.000000) "></path>
                    <path d="M60,60 C26.862915,60 0,86.862915 0,120 L90,120 L60,120 L60,60 Z" id="Oval-52" fill="#679619" transform="translate(45.000000, 90.000000) scale(1, -1) translate(-45.000000, -90.000000) "></path>
                </g>
                <g id="Group-33" transform="translate(240.000000, 182.000000)" sketch:type="MSShapeGroup">
                    <path d="M60,0 C26.862915,0 0,26.862915 0,60 L90,60 L60,60 L60,-1.55431223e-15 Z" id="Oval-53" fill="#8FBA46"></path>
                    <path d="M90,0 C56.862915,0 30,26.862915 30,60 L120,60 L90,60 L90,-1.55431223e-15 Z" id="Oval-50" fill="#C3E489" transform="translate(75.000000, 30.000000) scale(-1, 1) translate(-75.000000, -30.000000) "></path>
                    <path d="M90,60 C56.862915,60 30,86.862915 30,120 L120,120 L90,120 L90,60 Z" id="Oval-51" fill="#417505" transform="translate(75.000000, 90.000000) scale(-1, -1) translate(-75.000000, -90.000000) "></path>
                    <path d="M60,60 C26.862915,60 0,86.862915 0,120 L90,120 L60,120 L60,60 Z" id="Oval-52" fill="#679619" transform="translate(45.000000, 90.000000) scale(1, -1) translate(-45.000000, -90.000000) "></path>
                </g>
                <g id="Group-34" transform="translate(239.000000, 60.000000)" sketch:type="MSShapeGroup">
                    <path d="M60,0 C26.862915,0 0,26.862915 0,60 L90,60 L60,60 L60,-1.55431223e-15 Z" id="Oval-53" fill="#8FBA46"></path>
                    <path d="M90,0 C56.862915,0 30,26.862915 30,60 L120,60 L90,60 L90,-1.55431223e-15 Z" id="Oval-50" fill="#C3E489" transform="translate(75.000000, 30.000000) scale(-1, 1) translate(-75.000000, -30.000000) "></path>
                    <path d="M90,60 C56.862915,60 30,86.862915 30,120 L120,120 L90,120 L90,60 Z" id="Oval-51" fill="#417505" transform="translate(75.000000, 90.000000) scale(-1, -1) translate(-75.000000, -90.000000) "></path>
                    <path d="M60,60 C26.862915,60 0,86.862915 0,120 L90,120 L60,120 L60,60 Z" id="Oval-52" fill="#679619" transform="translate(45.000000, 90.000000) scale(1, -1) translate(-45.000000, -90.000000) "></path>
                </g>
                <g id="Group-35" transform="translate(299.000000, 120.000000)" sketch:type="MSShapeGroup">
                    <path d="M60,0 C26.862915,0 0,26.862915 0,60 L90,60 L60,60 L60,-1.55431223e-15 Z" id="Oval-53" fill="#8FBA46"></path>
                    <path d="M90,0 C56.862915,0 30,26.862915 30,60 L120,60 L90,60 L90,-1.55431223e-15 Z" id="Oval-50" fill="#C3E489" transform="translate(75.000000, 30.000000) scale(-1, 1) translate(-75.000000, -30.000000) "></path>
                    <path d="M90,60 C56.862915,60 30,86.862915 30,120 L120,120 L90,120 L90,60 Z" id="Oval-51" fill="#417505" transform="translate(75.000000, 90.000000) scale(-1, -1) translate(-75.000000, -90.000000) "></path>
                    <path d="M60,60 C26.862915,60 0,86.862915 0,120 L90,120 L60,120 L60,60 Z" id="Oval-52" fill="#679619" transform="translate(45.000000, 90.000000) scale(1, -1) translate(-45.000000, -90.000000) "></path>
                </g>
                <g id="Group-36" transform="translate(179.000000, 120.000000)" sketch:type="MSShapeGroup">
                    <path d="M60,0 C26.862915,0 0,26.862915 0,60 L90,60 L60,60 L60,-1.55431223e-15 Z" id="Oval-53" fill="#8FBA46"></path>
                    <path d="M90,0 C56.862915,0 30,26.862915 30,60 L120,60 L90,60 L90,-1.55431223e-15 Z" id="Oval-50" fill="#C3E489" transform="translate(75.000000, 30.000000) scale(-1, 1) translate(-75.000000, -30.000000) "></path>
                    <path d="M90,60 C56.862915,60 30,86.862915 30,120 L120,120 L90,120 L90,60 Z" id="Oval-51" fill="#417505" transform="translate(75.000000, 90.000000) scale(-1, -1) translate(-75.000000, -90.000000) "></path>
                    <path d="M60,60 C26.862915,60 0,86.862915 0,120 L90,120 L60,120 L60,60 Z" id="Oval-52" fill="#679619" transform="translate(45.000000, 90.000000) scale(1, -1) translate(-45.000000, -90.000000) "></path>
                </g>
            </g>
        </g>
    </g>
</svg>